# xmcd CD database file
# Copyright (C) 1993-1996 Ti Kan
#
# Track frame offsets:
# 150
# 10585
# 21580
# 33050
# 44260
# 57072
# 67487
# 77327
# 88487
# 100622
#
# Disc length: 1492 seconds
#
# Revision: 0
# Processed by: cddbd v1.4b41PL1 Copyright (c) Steve Scherf et al.
# Submitted via: inCDius 1.1b5
#
DISCID=7605d20a
DTITLE=Connie Smith - Connie Smith Super Hits
DYEAR=1900
DGENRE=
TTITLE0=Once A Day
TTITLE1=Then And Only Then
TTITLE2=Tiny Blue Transistor Radio
TTITLE3=Nobody But A Fool (Would Love You)
TTITLE4=The Hurtin's All Over
TTITLE5=Ain't Had No Lovin'
TTITLE6=Cincinnati, Ohio
TTITLE7=Louisiana Man
TTITLE8=Where Is My Castle
TTITLE9=Just One Time
EXTD=
EXTT0=
EXTT1=
EXTT2=
EXTT3=
EXTT4=
EXTT5=
EXTT6=
EXTT7=
EXTT8=
EXTT9=
PLAYORDER=
